<mxfile host="app.diagrams.net" modified="2022-09-29T12:11:16.088Z" agent="5.0 (Windows NT 10.0; Win64; x64) AppleWebKit/537.36 (KHTML, like Gecko) Chrome/101.0.0.0 Safari/537.36" etag="StWwTiIAlKR5xPgBvSha" version="20.3.7" type="github">
  <diagram id="Tf-ROqd5I0BjPCLAmrv_" name="第 1 页">
    <mxGraphModel dx="1038" dy="547" grid="1" gridSize="10" guides="1" tooltips="1" connect="1" arrows="1" fold="1" page="1" pageScale="1" pageWidth="827" pageHeight="1169" math="0" shadow="0">
      <root>
        <mxCell id="0" />
        <mxCell id="1" parent="0" />
        <mxCell id="2l5vj2_Z7wzyE9L1ZZ0V-1" value="" style="rounded=0;whiteSpace=wrap;html=1;" parent="1" vertex="1">
          <mxGeometry x="40" y="150" width="780" height="490" as="geometry" />
        </mxCell>
        <mxCell id="2l5vj2_Z7wzyE9L1ZZ0V-3" value="" style="rounded=0;whiteSpace=wrap;html=1;" parent="1" vertex="1">
          <mxGeometry x="50" y="430" width="110" height="200" as="geometry" />
        </mxCell>
        <mxCell id="2l5vj2_Z7wzyE9L1ZZ0V-2" value="" style="rounded=0;whiteSpace=wrap;html=1;" parent="1" vertex="1">
          <mxGeometry x="50" y="190" width="110" height="230" as="geometry" />
        </mxCell>
        <mxCell id="2l5vj2_Z7wzyE9L1ZZ0V-8" value="JDK12" style="rounded=0;whiteSpace=wrap;html=1;fillColor=#dae8fc;strokeColor=#6c8ebf;gradientColor=#85B8FF;" parent="1" vertex="1">
          <mxGeometry x="59" y="271" width="90" height="40" as="geometry" />
        </mxCell>
        <mxCell id="2l5vj2_Z7wzyE9L1ZZ0V-9" value="单元测试&lt;br&gt;JUNIT" style="rounded=0;whiteSpace=wrap;html=1;fillColor=#dae8fc;strokeColor=#6c8ebf;gradientColor=#85B8FF;" parent="1" vertex="1">
          <mxGeometry x="60" y="319" width="90" height="40" as="geometry" />
        </mxCell>
        <mxCell id="2l5vj2_Z7wzyE9L1ZZ0V-10" value="性能测试&lt;br&gt;LoadRunner" style="rounded=0;whiteSpace=wrap;html=1;fillColor=#dae8fc;strokeColor=#6c8ebf;gradientColor=#85B8FF;" parent="1" vertex="1">
          <mxGeometry x="60" y="367" width="90" height="40" as="geometry" />
        </mxCell>
        <mxCell id="2l5vj2_Z7wzyE9L1ZZ0V-11" value="开发环境" style="text;html=1;strokeColor=none;fillColor=none;align=center;verticalAlign=middle;whiteSpace=wrap;rounded=0;" parent="1" vertex="1">
          <mxGeometry x="75" y="190" width="60" height="30" as="geometry" />
        </mxCell>
        <mxCell id="HxrzQFl6GsJWeDt-w_co-1" value="命名规范" style="rounded=0;whiteSpace=wrap;html=1;fillColor=#dae8fc;strokeColor=#6c8ebf;gradientColor=#85B8FF;" vertex="1" parent="1">
          <mxGeometry x="60" y="462" width="90" height="40" as="geometry" />
        </mxCell>
        <mxCell id="HxrzQFl6GsJWeDt-w_co-2" value="编码规范" style="rounded=0;whiteSpace=wrap;html=1;fillColor=#dae8fc;strokeColor=#6c8ebf;gradientColor=#85B8FF;" vertex="1" parent="1">
          <mxGeometry x="59" y="574" width="90" height="40" as="geometry" />
        </mxCell>
        <mxCell id="HxrzQFl6GsJWeDt-w_co-3" value="数据库设计规范" style="rounded=0;whiteSpace=wrap;html=1;fillColor=#dae8fc;strokeColor=#6c8ebf;gradientColor=#85B8FF;" vertex="1" parent="1">
          <mxGeometry x="59" y="519" width="90" height="40" as="geometry" />
        </mxCell>
        <mxCell id="HxrzQFl6GsJWeDt-w_co-4" value="开发规范" style="text;html=1;strokeColor=none;fillColor=none;align=center;verticalAlign=middle;whiteSpace=wrap;rounded=0;" vertex="1" parent="1">
          <mxGeometry x="75" y="430" width="60" height="30" as="geometry" />
        </mxCell>
        <mxCell id="HxrzQFl6GsJWeDt-w_co-12" value="IDEA" style="rounded=0;whiteSpace=wrap;html=1;fillColor=#dae8fc;strokeColor=#6c8ebf;gradientColor=#85B8FF;" vertex="1" parent="1">
          <mxGeometry x="59" y="220" width="90" height="40" as="geometry" />
        </mxCell>
        <mxCell id="HxrzQFl6GsJWeDt-w_co-13" value="" style="rounded=0;whiteSpace=wrap;html=1;gradientColor=none;" vertex="1" parent="1">
          <mxGeometry x="185" y="300" width="495" height="180" as="geometry" />
        </mxCell>
        <mxCell id="HxrzQFl6GsJWeDt-w_co-14" value="" style="rounded=0;whiteSpace=wrap;html=1;" vertex="1" parent="1">
          <mxGeometry x="702" y="190" width="110" height="440" as="geometry" />
        </mxCell>
        <mxCell id="HxrzQFl6GsJWeDt-w_co-15" value="过程管理" style="text;html=1;strokeColor=none;fillColor=none;align=center;verticalAlign=middle;whiteSpace=wrap;rounded=0;" vertex="1" parent="1">
          <mxGeometry x="727" y="190" width="60" height="30" as="geometry" />
        </mxCell>
        <mxCell id="HxrzQFl6GsJWeDt-w_co-17" value="项目搭建&lt;br&gt;maven/webpack" style="rounded=0;whiteSpace=wrap;html=1;fillColor=#dae8fc;strokeColor=#6c8ebf;gradientColor=#85B8FF;" vertex="1" parent="1">
          <mxGeometry x="712" y="251" width="90" height="49" as="geometry" />
        </mxCell>
        <mxCell id="HxrzQFl6GsJWeDt-w_co-22" value="版本控制&lt;br&gt;svn" style="rounded=0;whiteSpace=wrap;html=1;fillColor=#dae8fc;strokeColor=#6c8ebf;gradientColor=#85B8FF;" vertex="1" parent="1">
          <mxGeometry x="712" y="330" width="90" height="49" as="geometry" />
        </mxCell>
        <mxCell id="HxrzQFl6GsJWeDt-w_co-24" value="构建仓库&lt;br&gt;Gitlab" style="rounded=0;whiteSpace=wrap;html=1;fillColor=#dae8fc;strokeColor=#6c8ebf;gradientColor=#85B8FF;" vertex="1" parent="1">
          <mxGeometry x="712" y="409" width="90" height="49" as="geometry" />
        </mxCell>
        <mxCell id="HxrzQFl6GsJWeDt-w_co-25" value="问题跟踪&lt;br&gt;wiki" style="rounded=0;whiteSpace=wrap;html=1;fillColor=#dae8fc;strokeColor=#6c8ebf;gradientColor=#85B8FF;" vertex="1" parent="1">
          <mxGeometry x="712" y="488" width="90" height="49" as="geometry" />
        </mxCell>
        <mxCell id="HxrzQFl6GsJWeDt-w_co-26" value="知识管理&lt;br&gt;wiki" style="rounded=0;whiteSpace=wrap;html=1;fillColor=#dae8fc;strokeColor=#6c8ebf;gradientColor=#85B8FF;" vertex="1" parent="1">
          <mxGeometry x="712" y="567.5" width="90" height="49" as="geometry" />
        </mxCell>
        <mxCell id="HxrzQFl6GsJWeDt-w_co-29" value="" style="group" vertex="1" connectable="0" parent="1">
          <mxGeometry x="185" y="220" width="495" height="60" as="geometry" />
        </mxCell>
        <mxCell id="HxrzQFl6GsJWeDt-w_co-6" value="" style="rounded=0;whiteSpace=wrap;html=1;gradientColor=none;" vertex="1" parent="HxrzQFl6GsJWeDt-w_co-29">
          <mxGeometry width="494.99999999999994" height="60" as="geometry" />
        </mxCell>
        <mxCell id="HxrzQFl6GsJWeDt-w_co-7" value="前端" style="text;html=1;strokeColor=none;fillColor=none;align=center;verticalAlign=middle;whiteSpace=wrap;rounded=0;" vertex="1" parent="HxrzQFl6GsJWeDt-w_co-29">
          <mxGeometry x="10.102040816326529" y="9" width="60.61224489795918" height="30" as="geometry" />
        </mxCell>
        <mxCell id="HxrzQFl6GsJWeDt-w_co-8" value="Antd Vue" style="rounded=0;whiteSpace=wrap;html=1;fillColor=#dae8fc;strokeColor=#6c8ebf;gradientColor=#85B8FF;" vertex="1" parent="HxrzQFl6GsJWeDt-w_co-29">
          <mxGeometry x="121.22448979591836" y="9" width="90.91836734693877" height="40" as="geometry" />
        </mxCell>
        <mxCell id="HxrzQFl6GsJWeDt-w_co-9" value="React" style="rounded=0;whiteSpace=wrap;html=1;fillColor=#dae8fc;strokeColor=#6c8ebf;gradientColor=#85B8FF;" vertex="1" parent="HxrzQFl6GsJWeDt-w_co-29">
          <mxGeometry x="373.77551020408157" y="9" width="90.91836734693877" height="40" as="geometry" />
        </mxCell>
        <mxCell id="HxrzQFl6GsJWeDt-w_co-10" value="JQuery" style="rounded=0;whiteSpace=wrap;html=1;fillColor=#dae8fc;strokeColor=#6c8ebf;gradientColor=#85B8FF;" vertex="1" parent="HxrzQFl6GsJWeDt-w_co-29">
          <mxGeometry x="247.49999999999997" y="9" width="90.91836734693877" height="40" as="geometry" />
        </mxCell>
        <mxCell id="HxrzQFl6GsJWeDt-w_co-30" value="" style="rounded=0;whiteSpace=wrap;html=1;gradientColor=none;" vertex="1" parent="1">
          <mxGeometry x="185" y="154" width="495" height="60" as="geometry" />
        </mxCell>
        <mxCell id="HxrzQFl6GsJWeDt-w_co-31" value="客户端" style="text;html=1;strokeColor=none;fillColor=none;align=center;verticalAlign=middle;whiteSpace=wrap;rounded=0;" vertex="1" parent="1">
          <mxGeometry x="200" y="169" width="60" height="30" as="geometry" />
        </mxCell>
        <mxCell id="HxrzQFl6GsJWeDt-w_co-32" value="浏览器&lt;br&gt;chrome/firefox" style="rounded=0;whiteSpace=wrap;html=1;fillColor=#dae8fc;strokeColor=#6c8ebf;gradientColor=#85B8FF;" vertex="1" parent="1">
          <mxGeometry x="330" y="164" width="90" height="40" as="geometry" />
        </mxCell>
        <mxCell id="HxrzQFl6GsJWeDt-w_co-33" value="后端服务" style="text;html=1;strokeColor=none;fillColor=none;align=center;verticalAlign=middle;whiteSpace=wrap;rounded=0;" vertex="1" parent="1">
          <mxGeometry x="195" y="377" width="60" height="30" as="geometry" />
        </mxCell>
        <mxCell id="HxrzQFl6GsJWeDt-w_co-34" value="" style="rounded=0;whiteSpace=wrap;html=1;gradientColor=none;" vertex="1" parent="1">
          <mxGeometry x="275" y="310" width="395" height="31" as="geometry" />
        </mxCell>
        <mxCell id="HxrzQFl6GsJWeDt-w_co-35" value="" style="rounded=0;whiteSpace=wrap;html=1;gradientColor=none;" vertex="1" parent="1">
          <mxGeometry x="275" y="359.5" width="395" height="30.5" as="geometry" />
        </mxCell>
        <mxCell id="HxrzQFl6GsJWeDt-w_co-36" value="" style="rounded=0;whiteSpace=wrap;html=1;gradientColor=none;" vertex="1" parent="1">
          <mxGeometry x="275" y="410" width="395" height="60" as="geometry" />
        </mxCell>
        <mxCell id="HxrzQFl6GsJWeDt-w_co-37" value="springboot" style="rounded=0;whiteSpace=wrap;html=1;fillColor=#dae8fc;strokeColor=#6c8ebf;gradientColor=#85B8FF;" vertex="1" parent="1">
          <mxGeometry x="340" y="313" width="90" height="25" as="geometry" />
        </mxCell>
        <mxCell id="HxrzQFl6GsJWeDt-w_co-38" value="swagger2" style="rounded=0;whiteSpace=wrap;html=1;fillColor=#dae8fc;strokeColor=#6c8ebf;gradientColor=#85B8FF;" vertex="1" parent="1">
          <mxGeometry x="455" y="313" width="90" height="25" as="geometry" />
        </mxCell>
        <mxCell id="HxrzQFl6GsJWeDt-w_co-39" value="Apache Shiro/Jwt" style="rounded=0;whiteSpace=wrap;html=1;fillColor=#dae8fc;strokeColor=#6c8ebf;gradientColor=#85B8FF;" vertex="1" parent="1">
          <mxGeometry x="570" y="313" width="90" height="25" as="geometry" />
        </mxCell>
        <mxCell id="HxrzQFl6GsJWeDt-w_co-41" value="控制层" style="text;html=1;strokeColor=none;fillColor=none;align=center;verticalAlign=middle;whiteSpace=wrap;rounded=0;" vertex="1" parent="1">
          <mxGeometry x="275" y="313" width="60" height="30" as="geometry" />
        </mxCell>
        <mxCell id="HxrzQFl6GsJWeDt-w_co-42" value="log4j" style="rounded=0;whiteSpace=wrap;html=1;fillColor=#dae8fc;strokeColor=#6c8ebf;gradientColor=#85B8FF;" vertex="1" parent="1">
          <mxGeometry x="339" y="361.5" width="70" height="25" as="geometry" />
        </mxCell>
        <mxCell id="HxrzQFl6GsJWeDt-w_co-43" value="全局异常/拦截" style="rounded=0;whiteSpace=wrap;html=1;fillColor=#dae8fc;strokeColor=#6c8ebf;gradientColor=#85B8FF;" vertex="1" parent="1">
          <mxGeometry x="505" y="361.5" width="80" height="25" as="geometry" />
        </mxCell>
        <mxCell id="HxrzQFl6GsJWeDt-w_co-44" value="工具包" style="rounded=0;whiteSpace=wrap;html=1;fillColor=#dae8fc;strokeColor=#6c8ebf;gradientColor=#85B8FF;" vertex="1" parent="1">
          <mxGeometry x="600" y="361.5" width="60" height="25" as="geometry" />
        </mxCell>
        <mxCell id="HxrzQFl6GsJWeDt-w_co-46" value="业务层" style="text;html=1;strokeColor=none;fillColor=none;align=center;verticalAlign=middle;whiteSpace=wrap;rounded=0;" vertex="1" parent="1">
          <mxGeometry x="274" y="361" width="60" height="30" as="geometry" />
        </mxCell>
        <mxCell id="HxrzQFl6GsJWeDt-w_co-48" value="事务控制" style="rounded=0;whiteSpace=wrap;html=1;fillColor=#dae8fc;strokeColor=#6c8ebf;gradientColor=#85B8FF;" vertex="1" parent="1">
          <mxGeometry x="424" y="361.5" width="70" height="25" as="geometry" />
        </mxCell>
        <mxCell id="HxrzQFl6GsJWeDt-w_co-51" value="持久层" style="text;html=1;strokeColor=none;fillColor=none;align=center;verticalAlign=middle;whiteSpace=wrap;rounded=0;" vertex="1" parent="1">
          <mxGeometry x="275" y="420" width="60" height="30" as="geometry" />
        </mxCell>
        <mxCell id="HxrzQFl6GsJWeDt-w_co-52" value="drudid 连接池" style="rounded=0;whiteSpace=wrap;html=1;fillColor=#dae8fc;strokeColor=#6c8ebf;gradientColor=#85B8FF;" vertex="1" parent="1">
          <mxGeometry x="338" y="414.5" width="92" height="25" as="geometry" />
        </mxCell>
        <mxCell id="HxrzQFl6GsJWeDt-w_co-54" value="pageHelper&lt;br&gt;分页组件" style="rounded=0;whiteSpace=wrap;html=1;fillColor=#dae8fc;strokeColor=#6c8ebf;gradientColor=#85B8FF;" vertex="1" parent="1">
          <mxGeometry x="440" y="414.5" width="90" height="25" as="geometry" />
        </mxCell>
        <mxCell id="HxrzQFl6GsJWeDt-w_co-55" value="mybatis&amp;nbsp;&lt;br&gt;代码自动生成" style="rounded=0;whiteSpace=wrap;html=1;fillColor=#dae8fc;strokeColor=#6c8ebf;gradientColor=#85B8FF;" vertex="1" parent="1">
          <mxGeometry x="545" y="414.5" width="90" height="25" as="geometry" />
        </mxCell>
        <mxCell id="HxrzQFl6GsJWeDt-w_co-56" value="mybatis&amp;nbsp;" style="rounded=0;whiteSpace=wrap;html=1;fillColor=#dae8fc;strokeColor=#6c8ebf;gradientColor=#85B8FF;" vertex="1" parent="1">
          <mxGeometry x="338" y="441.5" width="92" height="25" as="geometry" />
        </mxCell>
        <mxCell id="HxrzQFl6GsJWeDt-w_co-58" value="JDBC" style="rounded=0;whiteSpace=wrap;html=1;fillColor=#dae8fc;strokeColor=#6c8ebf;gradientColor=#85B8FF;" vertex="1" parent="1">
          <mxGeometry x="440" y="441.5" width="90" height="25" as="geometry" />
        </mxCell>
        <mxCell id="HxrzQFl6GsJWeDt-w_co-59" value="" style="rounded=0;whiteSpace=wrap;html=1;gradientColor=none;" vertex="1" parent="1">
          <mxGeometry x="185" y="508" width="495" height="122" as="geometry" />
        </mxCell>
        <mxCell id="HxrzQFl6GsJWeDt-w_co-60" value="基础层" style="text;html=1;strokeColor=none;fillColor=none;align=center;verticalAlign=middle;whiteSpace=wrap;rounded=0;" vertex="1" parent="1">
          <mxGeometry x="195" y="554" width="60" height="30" as="geometry" />
        </mxCell>
        <mxCell id="HxrzQFl6GsJWeDt-w_co-64" value="" style="rounded=0;whiteSpace=wrap;html=1;gradientColor=none;" vertex="1" parent="1">
          <mxGeometry x="270" y="537" width="380" height="73" as="geometry" />
        </mxCell>
        <mxCell id="HxrzQFl6GsJWeDt-w_co-65" value="物理层" style="text;html=1;strokeColor=none;fillColor=none;align=center;verticalAlign=middle;whiteSpace=wrap;rounded=0;" vertex="1" parent="1">
          <mxGeometry x="280" y="559" width="60" height="30" as="geometry" />
        </mxCell>
        <mxCell id="HxrzQFl6GsJWeDt-w_co-67" value="机房" style="rounded=0;whiteSpace=wrap;html=1;fillColor=#dae8fc;strokeColor=#6c8ebf;gradientColor=#85B8FF;" vertex="1" parent="1">
          <mxGeometry x="338" y="554" width="70" height="40" as="geometry" />
        </mxCell>
        <mxCell id="HxrzQFl6GsJWeDt-w_co-68" value="机房" style="rounded=0;whiteSpace=wrap;html=1;fillColor=#dae8fc;strokeColor=#6c8ebf;gradientColor=#85B8FF;" vertex="1" parent="1">
          <mxGeometry x="415" y="554" width="70" height="40" as="geometry" />
        </mxCell>
        <mxCell id="HxrzQFl6GsJWeDt-w_co-69" value="机房" style="rounded=0;whiteSpace=wrap;html=1;fillColor=#dae8fc;strokeColor=#6c8ebf;gradientColor=#85B8FF;" vertex="1" parent="1">
          <mxGeometry x="493" y="554" width="70" height="40" as="geometry" />
        </mxCell>
        <mxCell id="HxrzQFl6GsJWeDt-w_co-70" value="机房" style="rounded=0;whiteSpace=wrap;html=1;fillColor=#dae8fc;strokeColor=#6c8ebf;gradientColor=#85B8FF;" vertex="1" parent="1">
          <mxGeometry x="570" y="554" width="70" height="40" as="geometry" />
        </mxCell>
      </root>
    </mxGraphModel>
  </diagram>
</mxfile>
